Title                            : The Way Back
Year                             : 2010
Genre                            : Adventure | Drama
iMDB URL                         : http://www.imdb.com/title/tt1023114/

Complete name                    : The.Way.Back.2010.BRRIP.720P.H264-ZEKTORM.mp4
Format                           : MPEG-4
Format profile                   : Base Media
Codec ID                         : isom
File size                        : 2.93 GiB
Duration                         : 2h 13mn
Overall bit rate                 : 3149 Kbps
Subtitles                        : English (Format: srt)

Video
ID                               : 1
Format                           : AVC
Format/Info                      : Advanced Video Codec
Format profile                   : High@L4.0
Format settings, CABAC           : Yes
Format settings, ReFrames        : 12 frames
Codec ID                         : avc1
Codec ID/Info                    : Advanced Video Coding
Duration                         : 2h 13mn
Bit rate mode                    : Variable
Bit rate                         : 2944 Kbps
Width                            : 1280 pixels
Height                           : 544 pixels
Display aspect ratio             : 2.35
Frame rate mode                  : Constant
Frame rate                       : 23.976 fps
Resolution                       : 24 bits
Colorimetry                      : 4:2:0
Scan type                        : Progressive
Bits/(Pixel*Frame)               : 0.176
Stream size                      : 2.74 GiB (93%)
Title                            : Video
Writing library                  : x264

Audio
ID                               : 2
Format                           : AAC
Format/Info                      : Advanced Audio Codec
Format version                   : Version 4
Format profile                   : LC
Format settings, SBR             : Yes
Format settings, PS              : No
Codec ID                         : 40
Duration                         : 2h 13mn
Bit rate mode                    : Variable
Bit rate                         : 202 Kbps
Maximum bit rate                 : 267 Kbps
Channel(s)                       : 6 channels
Channel positions                : Front: L C R, Rear: L R, LFE
Sampling rate                    : 48.0 KHz
Resolution                       : 16 bits
Stream size                      : 192 MiB (6%)
Language                         : English


Screenshots:

[img]http://img577.imageshack.us/img577/228/snapwb1.png[/img]

[img]http://img856.imageshack.us/img856/1903/snapwb2.png[/img]

[img]http://img202.imageshack.us/img202/3824/snapwb3.png[/img]

[img]http://img163.imageshack.us/img163/5972/snapwb4.png[/img]





